<svg id="Layer_1" data-name="Layer 1" preserveAspectRatio="none" xmlns="http://www.w3.org/2000/svg" viewBox="0 0 550 160"><defs><style>.cls-1{fill:#2033a0;}.cls-2{fill:#fff;}</style></defs><rect class="cls-1" width="550" height="160" rx="8.25"/><path class="cls-2" d="M47.4,44.2H74.2a22.93,22.93,0,0,1,10.6,2.5,19.84,19.84,0,0,1,7.75,6.85A17.24,17.24,0,0,1,95.4,63.2a16.18,16.18,0,0,1-2.65,9.25,17.22,17.22,0,0,1-7,6V79a18.07,18.07,0,0,1,8.9,6.3,16.84,16.84,0,0,1,3.3,10.4,18.28,18.28,0,0,1-3.05,10.45,20.69,20.69,0,0,1-8.2,7.1A25,25,0,0,1,75.4,115.8h-28ZM73.7,74.3a10.72,10.72,0,0,0,8-3,9.75,9.75,0,0,0,3-7,9.5,9.5,0,0,0-3-7,10.32,10.32,0,0,0-7.65-3H58.4v20Zm1.7,31.3a11.28,11.28,0,0,0,8.35-3.15,10.57,10.57,0,0,0-.1-15.15A11.8,11.8,0,0,0,75,84.1H58.4v21.5Z"/><path class="cls-2" d="M121.35,113.8a24.22,24.22,0,0,1-9.5-10.2,33.41,33.41,0,0,1-3.35-15.3V44.2h10.9V88.9q0,8.1,4.2,13.1t11.9,5q7.8,0,12-5t4.2-13.1V44.2h10.9V88.3a33.56,33.56,0,0,1-3.3,15.2,24.3,24.3,0,0,1-9.4,10.25,29.92,29.92,0,0,1-28.55,0Z"/><path class="cls-2" d="M194.9,82.6,170.7,44.2h13L200,71.1h.6l15.9-26.9h13.1L205.8,82.6v33.2H194.9Z"/><path class="cls-2" d="M262.4,44.2h13l32.4,52.6h.6L307.8,83V44.2h10.9v71.6H307.3l-34-55.3h-.6l.6,13.8v41.5H262.4Z"/><path class="cls-2" d="M348.5,112.4a36.1,36.1,0,0,1-13.35-13.55A37.46,37.46,0,0,1,330.3,80a37.46,37.46,0,0,1,4.85-18.85A36.1,36.1,0,0,1,348.5,47.6a37,37,0,0,1,51.05,13.55,39.06,39.06,0,0,1,0,37.7A37.48,37.48,0,0,1,348.5,112.4Zm32.05-8.85A25.06,25.06,0,0,0,390,94a28,28,0,0,0,3.45-14,28,28,0,0,0-3.45-14,25.06,25.06,0,0,0-9.4-9.6,26.79,26.79,0,0,0-26.3,0,25,25,0,0,0-9.4,9.6,28,28,0,0,0-3.45,14,28,28,0,0,0,3.45,14,25,25,0,0,0,9.4,9.6,26.79,26.79,0,0,0,26.3,0Z"/><path class="cls-2" d="M409.7,44.2h12.2l11.4,46.5,1.2,6.2h.6l1.5-6.2L451,44.2h11l13.8,46.5,1.5,6.1h.6l1.2-6.1,11.4-46.5h12.1l-18.9,71.6H472.1L458.4,68.3l-1.6-6.7h-.6l-1.7,6.7-14.3,47.5H428.9Z"/></svg>